<?xml version="1.0" standalone="no"?>
<svg xmlns="http://www.w3.org/2000/svg" viewBox="0 0 144.504 36" width="144.504" height="36"><g fill="#000000" color="#000000" transform="translate(0 7.24436) scale(0.2800001)"><g transform="translate(0.001, -11.588)"><svg width="100.0" height="76.826" x="-0.001" y="11.588" viewBox="-0.001 11.588 100 76.826"><path d="M96.033,24.973V11.588h-3.84h-3.842H88.04l-5.45,1.816l-5.451-1.816H74.67l-7.446,1.861l-7.446-1.861h-2.47l-5.45,1.816  l-5.451-1.816h-4.153v13.354l-0.549,5.852H32.65V18.309c0-3.707-3.016-6.721-6.722-6.721H-0.001v11.524h21.127v7.682H9.602v11.524  h3.995l3.842,46.096h18.886h7.683h3.855h36.522h3.849h11.765L96.033,24.973z M3.841,19.27v-3.842H25.93  c1.588,0,2.881,1.292,2.881,2.881v12.485h-3.842V19.27H3.841z M36.647,84.572H20.975l-3.522-42.254h22.715L36.647,84.572z   M44.176,38.476h-3.688H13.444v-3.84h7.683h11.524h8.696h2.829V38.476z M86.427,55.762l-1.799,28.811H48.185l1.76-21.126  l1.761-21.128h3.993l0,0V30.794H45.564l0.36-3.842h42.303L86.427,55.762z M88.352,23.112H46.097v-7.581l5.763,1.922l6.072-2.025  h1.373l7.919,1.98l7.918-1.98h1.373l6.075,2.025l5.762-1.922V23.112L88.352,23.112z"></path></svg></g></g><path fill="#5FB709" fill-rule="nonzero" d="M7.14 4.48L7.14 17.51Q6.57 17.44 4.24 17.44L4.24 17.44L3.87 17.44L3.87 4.48L1.55 4.48Q0.52 4.48 0.33 4.58Q0.14 4.69 0.04 4.77L0.04 4.77L0 4.76L0 1.76L0.04 1.72Q0.42 1.85 2.12 1.85L2.12 1.85L9.47 1.85Q10.50 1.85 10.69 1.75Q10.88 1.64 10.98 1.56L10.98 1.56L11.02 1.57L11.02 4.57L10.98 4.61Q10.59 4.48 8.89 4.48L8.89 4.48L7.14 4.48ZM20.58 17.44L20.58 16.37Q19.08 17.61 17.31 17.61L17.31 17.61Q15.41 17.61 14.33 16.34L14.33 16.34Q13.30 15.09 13.30 12.93L13.30 12.93L13.30 8.27Q13.30 5.93 13.20 5.58Q13.10 5.24 13.05 5.14L13.05 5.14Q13.59 5.19 14.18 5.19L14.18 5.19L15.15 5.19Q15.54 5.19 16.17 5.16L16.17 5.16L16.17 11.94Q16.17 14.36 17.48 14.74L17.48 14.74Q17.88 14.86 18.35 14.86L18.35 14.86Q19.73 14.86 20.58 13.85L20.58 13.85L20.58 5.19L23.48 5.19L23.48 15.94Q23.48 16.97 23.58 17.44L23.58 17.44L20.58 17.44ZM29.99 8.91L29.99 16.13Q29.99 17.13 30.04 17.44L30.04 17.44L27.12 17.44L27.12 5.19L29.99 5.19L29.99 6.09Q30.98 4.96 32.08 4.96Q33.18 4.96 33.81 5.23L33.81 5.23L33.60 8.38L33.55 8.41Q33.14 7.69 31.85 7.69L31.85 7.69Q31.36 7.69 30.85 8.02Q30.34 8.36 29.99 8.91L29.99 8.91ZM38.17 0L38.17 5.64Q39.48 4.96 40.85 4.96Q42.22 4.96 43.21 5.38Q44.20 5.81 44.95 6.61L44.95 6.61Q46.58 8.38 46.58 11.09L46.58 11.09Q46.58 14.05 44.81 15.87L44.81 15.87Q43.11 17.61 40.58 17.61L40.58 17.61Q38.36 17.61 36.91 16.45L36.91 16.45Q35.30 15.14 35.30 12.83L35.30 12.83L35.30 0L38.17 0ZM38.17 8.60L38.17 12.80Q38.17 14.86 40.73 14.86L40.73 14.86Q41.99 14.86 42.84 13.76L42.84 13.76Q43.71 12.63 43.71 10.96L43.71 10.96Q43.71 9.27 42.80 8.41L42.80 8.41Q41.98 7.65 40.59 7.65L40.59 7.65Q39.76 7.65 38.75 8.21L38.75 8.21Q38.44 8.39 38.17 8.60L38.17 8.60ZM48.26 11.38L48.26 11.38Q48.26 10.09 48.70 8.91Q49.14 7.73 49.96 6.86L49.96 6.86Q51.75 4.96 54.61 4.96L54.61 4.96Q57.46 4.96 59.13 6.75L59.13 6.75Q60.74 8.46 60.74 11.19L60.74 11.19Q60.74 13.92 59.09 15.71L59.09 15.71Q57.34 17.61 54.46 17.61L54.46 17.61Q51.48 17.61 49.79 15.75L49.79 15.75Q48.26 14.05 48.26 11.38ZM51.11 11.31L51.11 11.31Q51.11 12.05 51.35 12.74Q51.60 13.43 52.05 13.92L52.05 13.92Q53.03 14.99 54.61 14.99L54.61 14.99Q56.07 14.99 56.92 13.95L56.92 13.95Q57.74 12.94 57.74 11.32L57.74 11.32Q57.74 9.68 56.89 8.67L56.89 8.67Q55.99 7.59 54.42 7.59L54.42 7.59Q52.83 7.59 51.93 8.74L51.93 8.74Q51.11 9.80 51.11 11.31ZM66.53 14.63L71.31 14.63Q72.04 14.63 72.32 14.48L72.32 14.48L72.36 14.50L72.25 17.44L63.47 17.44L63.47 1.77Q63.79 1.79 64.17 1.80L64.17 1.80L64.99 1.83Q65.81 1.85 66.77 1.85L66.77 1.85Q69.46 1.85 72.08 1.76L72.08 1.76Q71.95 2.79 71.95 4.51L71.95 4.51Q71.95 4.70 71.98 4.79L71.98 4.79L71.95 4.83Q71.34 4.65 70.22 4.65L70.22 4.65L66.53 4.65L66.53 7.64L69.30 7.64Q70.59 7.64 70.85 7.57L70.85 7.57L70.89 10.46Q70.32 10.41 69.43 10.41L69.43 10.41L66.53 10.41L66.53 14.63ZM83.29 16.71L83.29 16.71Q81.62 17.61 80.27 17.61Q78.93 17.61 77.96 17.36Q77.00 17.11 76.34 16.62L76.34 16.62Q74.98 15.62 74.98 13.73L74.98 13.73Q74.98 12.05 76.64 10.92L76.64 10.92Q78.45 9.70 81.54 9.70L81.54 9.70L82.01 9.71Q82.15 9.73 82.32 9.73Q82.50 9.74 82.64 9.76L82.64 9.76Q82.55 7.89 81.02 7.57L81.02 7.57Q80.52 7.46 79.95 7.46Q79.38 7.46 78.84 7.56Q78.29 7.66 77.78 7.83L77.78 7.83Q76.64 8.19 76.15 8.66L76.15 8.66L76.11 8.64L75.76 6.05Q77.84 4.96 80.30 4.96L80.30 4.96Q84.12 4.96 85.18 7.71L85.18 7.71Q85.52 8.59 85.52 9.69L85.52 9.69L85.52 13.93Q85.52 15.29 86.48 15.79L86.48 15.79L84.36 17.73Q83.70 17.38 83.29 16.71ZM82.65 14.32L82.65 11.87Q82.34 11.81 82.00 11.81L82.00 11.81L81.53 11.81Q78.94 11.81 78.23 12.96L78.23 12.96Q78.02 13.30 78.02 13.68Q78.02 14.05 78.16 14.34Q78.29 14.63 78.61 14.81L78.61 14.81Q79.22 15.16 80.42 15.16Q81.62 15.16 82.66 14.59L82.66 14.59Q82.65 14.46 82.65 14.32L82.65 14.32ZM94.62 14.86L94.62 14.86Q96.13 14.86 96.69 14.07L96.69 14.07L96.79 14.07L96.82 16.79Q96.25 17.37 94.69 17.55L94.69 17.55Q94.27 17.61 93.64 17.61Q93.01 17.61 92.28 17.38Q91.55 17.14 91.03 16.62L91.03 16.62Q89.96 15.53 89.96 13.21L89.96 13.21L89.96 7.89L88.20 7.89Q88.18 7.55 88.18 7.20L88.18 7.20L88.18 5.39Q88.18 5.19 88.20 5.19L88.20 5.19L89.96 5.19L89.96 1.85L92.84 1.85L92.84 5.19L96.06 5.19L96.06 7.89L92.84 7.89L92.84 12.67Q92.84 14.51 93.86 14.77L93.86 14.77Q94.18 14.86 94.62 14.86ZM103.32 17.61L103.32 17.61Q100.02 17.61 98.34 16.41L98.34 16.41Q98.37 16.05 98.41 15.61L98.41 15.61L98.52 14.77Q98.61 13.93 98.64 13.73Q98.66 13.52 98.67 13.51Q98.68 13.49 98.86 13.69Q99.04 13.90 99.53 14.19Q100.02 14.48 100.66 14.71L100.66 14.71Q102.06 15.19 103.57 15.19L103.57 15.19Q105.60 15.19 105.60 13.84L105.60 13.84Q105.60 13.41 105.21 13.20L105.21 13.20Q104.52 12.84 103.18 12.66Q101.84 12.48 100.98 12.13Q100.13 11.78 99.59 11.29L99.59 11.29Q98.59 10.36 98.59 8.86L98.59 8.86Q98.59 7.03 100.00 5.99L100.00 5.99Q101.39 4.96 103.85 4.96L103.85 4.96Q106.29 4.96 108.01 6.34L108.01 6.34Q107.93 6.64 107.84 6.93L107.84 6.93Q107.57 7.70 107.44 8.04L107.44 8.04L107.17 8.73Q107.14 8.82 107.13 8.82L107.13 8.82Q107.11 8.82 106.95 8.58L106.95 8.58Q106.21 7.72 104.65 7.45L104.65 7.45Q104.17 7.36 103.66 7.36L103.66 7.36Q101.53 7.36 101.53 8.65L101.53 8.65Q101.53 9.09 101.98 9.33L101.98 9.33Q102.81 9.77 104.26 9.98Q105.70 10.20 106.45 10.55Q107.20 10.91 107.66 11.41L107.66 11.41Q108.50 12.33 108.50 13.84L108.50 13.84Q108.50 15.49 107.18 16.52L107.18 16.52Q105.80 17.61 103.32 17.61Z" transform="translate(36, 9.282)"></path></svg>